<svg xmlns="http://www.w3.org/2000/svg" width="24" height="24" viewBox="0 0 24 24" version="1.1">
  <g fill="none" fill-rule="evenodd">
    <path fill="#72A286" d="M11.983.362c.444.452.472 1.167.083 1.651l-.083.094-8.094 8.24c-.23.234-.538.36-.858.36-.32 0-.627-.126-.857-.36-.444-.453-.472-1.168-.084-1.653l.084-.094.653-.665-1.131-1.151C1.28 6.362 1.23 5.71 1.54 5.232l.073-.1.083-.094c.444-.452 1.146-.48 1.623-.085l.092.085 1.13 1.151L6.42 4.28 5.288 3.126c-.414-.422-.466-1.073-.155-1.552l.072-.1.083-.093c.444-.452 1.147-.48 1.623-.085l.092.085 1.13 1.15 2.135-2.17c.474-.483 1.241-.483 1.715 0z"/>
    <path fill="#46756C" d="M18.355 1.452l.092.085c.444.452.472 1.167.083 1.652l-.083.093L6.34 15.606l.528.536c.446.451.475 1.166.088 1.652l-.083.094c-.23.236-.54.364-.86.364-.278 0-.548-.097-.765-.277l-.09-.083-.534-.54-1.082 1.103c-.201.205-.462.328-.738.355l-.12.006c-.318 0-.626-.127-.857-.361-.444-.452-.471-1.168-.083-1.652l.083-.094 1.078-1.097-2.547-2.58c-.445-.45-.474-1.165-.087-1.651l.083-.094c.443-.453 1.145-.483 1.623-.09l.092.085 2.551 2.584 2.017-2.054-.615-.626c-.444-.452-.472-1.167-.083-1.652l.083-.093c.444-.452 1.147-.48 1.623-.085l.092.085.615.626 1.877-1.911-.615-.626c-.444-.452-.471-1.167-.083-1.652l.083-.094c.444-.452 1.147-.48 1.623-.084l.092.084.616.627 1.86-1.894-.615-.627c-.444-.451-.472-1.167-.083-1.651l.083-.094c.444-.452 1.147-.48 1.623-.085l.092.085.615.626 1.213-1.234c.444-.452 1.147-.48 1.623-.085z"/>
    <path fill="#D77D71" d="M22.352 5.436c.444.452.472 1.167.083 1.652l-.083.094-1.25 1.272 2.543 2.588c.444.452.472 1.167.083 1.652l-.083.094c-.23.234-.538.361-.858.361-.28 0-.55-.097-.767-.278l-.09-.083-2.543-2.588-9.18 9.342.67.681c.444.452.472 1.168.083 1.652l-.083.094c-.23.235-.538.362-.858.362-.279 0-.55-.098-.767-.279l-.09-.083-.67-.682-1.046 1.067c-.201.205-.462.328-.738.356l-.12.006c-.319 0-.626-.127-.857-.362-.444-.452-.472-1.167-.083-1.652l.083-.094 4.773-4.858-.625-.62c-.45-.447-.486-1.162-.103-1.651l.082-.095c.438-.457 1.14-.494 1.622-.105l.093.084.645.641 1.878-1.911-.627-.639c-.444-.452-.472-1.167-.084-1.652l.084-.094c.444-.451 1.146-.48 1.623-.084l.092.084.627.64 1.861-1.894-.628-.64c-.444-.451-.472-1.166-.083-1.651l.083-.094c.444-.452 1.147-.48 1.623-.085l.092.085.628.639 1.25-1.272c.473-.482 1.241-.482 1.715 0z"/>
    <path fill="#9D917E" d="M18.872 13.472l.092.085.598.608.552-.56c.415-.423 1.054-.475 1.525-.16l.098.074.092.085c.444.452.472 1.167.083 1.652l-.083.094-.552.561 1.052 1.071c.415.422.467 1.073.156 1.552l-.072.1-.084.094c-.23.234-.538.361-.857.361-.28 0-.55-.097-.768-.279l-.09-.082-1.052-1.072-1.952 1.987 1.053 1.068c.415.42.468 1.072.158 1.551l-.072.1-.083.094c-.23.236-.539.363-.859.363-.279 0-.548-.096-.766-.277l-.09-.083-1.055-1.07-2.21 2.25c-.173.175-.39.29-.621.337l-.117.018-.12.006c-.319 0-.627-.127-.857-.362-.444-.451-.472-1.167-.083-1.651l.083-.094 2.207-2.248-.598-.605c-.415-.42-.468-1.072-.158-1.552l.072-.1.083-.093c.443-.453 1.146-.483 1.623-.088l.092.084.6.61 1.955-1.99-.598-.609c-.414-.422-.466-1.073-.155-1.552l.072-.1.083-.093c.444-.452 1.147-.48 1.623-.085zM11.983.362c.444.452.472 1.167.083 1.651l-.083.094-8.094 8.24c-.23.234-.538.36-.858.36-.32 0-.627-.126-.857-.36-.444-.453-.472-1.168-.084-1.653l.084-.094.653-.665-1.131-1.151C1.28 6.362 1.23 5.71 1.54 5.232l.073-.1.083-.094c.444-.452 1.146-.48 1.623-.085l.092.085 1.13 1.151L6.42 4.28 5.288 3.126c-.414-.422-.466-1.073-.155-1.552l.072-.1.083-.093c.444-.452 1.147-.48 1.623-.085l.092.085 1.13 1.15 2.135-2.17c.474-.483 1.241-.483 1.715 0z"/>
  </g>
</svg>

